<mxfile host="app.diagrams.net" modified="2022-07-20T12:53:54.705Z" agent="5.0 (Windows NT 6.1; Win64; x64) AppleWebKit/537.36 (KHTML, like Gecko) Chrome/103.0.0.0 Safari/537.36" etag="x1Pd6SVcKBC7CJYH4d88" version="20.1.1" type="github">
  <diagram id="z1VAgNsmtECaYcNAmzzD" name="Page-1">
    <mxGraphModel dx="1182" dy="728" grid="1" gridSize="10" guides="1" tooltips="1" connect="1" arrows="1" fold="1" page="1" pageScale="1" pageWidth="827" pageHeight="1169" math="0" shadow="0">
      <root>
        <mxCell id="0" />
        <mxCell id="1" parent="0" />
        <mxCell id="dbAEbBNosN-S3VM0Tga8-1" value="Начало ,&amp;nbsp;&lt;br&gt;координаты, текст" style="ellipse;whiteSpace=wrap;html=1;" vertex="1" parent="1">
          <mxGeometry x="240" y="20" width="340" height="50" as="geometry" />
        </mxCell>
        <mxCell id="dbAEbBNosN-S3VM0Tga8-2" value="валидные координаты" style="rhombus;whiteSpace=wrap;html=1;" vertex="1" parent="1">
          <mxGeometry x="298" y="100" width="224" height="80" as="geometry" />
        </mxCell>
        <mxCell id="dbAEbBNosN-S3VM0Tga8-3" value="" style="endArrow=classic;html=1;rounded=0;exitX=0.5;exitY=1;exitDx=0;exitDy=0;entryX=0.5;entryY=0;entryDx=0;entryDy=0;" edge="1" parent="1" source="dbAEbBNosN-S3VM0Tga8-1" target="dbAEbBNosN-S3VM0Tga8-2">
          <mxGeometry width="50" height="50" relative="1" as="geometry">
            <mxPoint x="430" y="130" as="sourcePoint" />
            <mxPoint x="480" y="80" as="targetPoint" />
          </mxGeometry>
        </mxCell>
        <mxCell id="dbAEbBNosN-S3VM0Tga8-4" value="нет" style="text;html=1;align=center;verticalAlign=middle;resizable=0;points=[];autosize=1;strokeColor=none;fillColor=none;" vertex="1" parent="1">
          <mxGeometry x="540" y="95" width="40" height="30" as="geometry" />
        </mxCell>
        <mxCell id="dbAEbBNosN-S3VM0Tga8-5" value="выброс исключения" style="rounded=0;whiteSpace=wrap;html=1;" vertex="1" parent="1">
          <mxGeometry x="710" y="110" width="120" height="60" as="geometry" />
        </mxCell>
        <mxCell id="dbAEbBNosN-S3VM0Tga8-6" value="" style="endArrow=classic;html=1;rounded=0;exitX=1;exitY=0.5;exitDx=0;exitDy=0;entryX=0;entryY=0.5;entryDx=0;entryDy=0;" edge="1" parent="1" source="dbAEbBNosN-S3VM0Tga8-2" target="dbAEbBNosN-S3VM0Tga8-5">
          <mxGeometry width="50" height="50" relative="1" as="geometry">
            <mxPoint x="390" y="400" as="sourcePoint" />
            <mxPoint x="440" y="350" as="targetPoint" />
          </mxGeometry>
        </mxCell>
        <mxCell id="dbAEbBNosN-S3VM0Tga8-7" value="Конец" style="ellipse;whiteSpace=wrap;html=1;" vertex="1" parent="1">
          <mxGeometry x="250" y="830" width="340" height="50" as="geometry" />
        </mxCell>
        <mxCell id="dbAEbBNosN-S3VM0Tga8-8" value="" style="endArrow=classic;html=1;rounded=0;exitX=0.592;exitY=1;exitDx=0;exitDy=0;exitPerimeter=0;entryX=1;entryY=0.5;entryDx=0;entryDy=0;" edge="1" parent="1" source="dbAEbBNosN-S3VM0Tga8-5" target="dbAEbBNosN-S3VM0Tga8-7">
          <mxGeometry width="50" height="50" relative="1" as="geometry">
            <mxPoint x="390" y="410" as="sourcePoint" />
            <mxPoint x="440" y="360" as="targetPoint" />
            <Array as="points">
              <mxPoint x="780" y="840" />
            </Array>
          </mxGeometry>
        </mxCell>
        <mxCell id="dbAEbBNosN-S3VM0Tga8-11" value="" style="endArrow=classic;html=1;rounded=0;exitX=0;exitY=0.5;exitDx=0;exitDy=0;" edge="1" parent="1" source="dbAEbBNosN-S3VM0Tga8-2">
          <mxGeometry width="50" height="50" relative="1" as="geometry">
            <mxPoint x="390" y="410" as="sourcePoint" />
            <mxPoint x="220" y="200" as="targetPoint" />
          </mxGeometry>
        </mxCell>
        <mxCell id="dbAEbBNosN-S3VM0Tga8-12" value="Да" style="text;html=1;align=center;verticalAlign=middle;resizable=0;points=[];autosize=1;strokeColor=none;fillColor=none;" vertex="1" parent="1">
          <mxGeometry x="220" y="165" width="40" height="30" as="geometry" />
        </mxCell>
        <mxCell id="dbAEbBNosN-S3VM0Tga8-18" value="выброс исключения" style="rounded=0;whiteSpace=wrap;html=1;" vertex="1" parent="1">
          <mxGeometry x="620" y="410" width="120" height="60" as="geometry" />
        </mxCell>
        <mxCell id="dbAEbBNosN-S3VM0Tga8-20" value="" style="endArrow=classic;html=1;rounded=0;exitX=0.433;exitY=1.033;exitDx=0;exitDy=0;exitPerimeter=0;" edge="1" parent="1" source="dbAEbBNosN-S3VM0Tga8-56" target="dbAEbBNosN-S3VM0Tga8-57">
          <mxGeometry width="50" height="50" relative="1" as="geometry">
            <mxPoint x="259" y="780" as="sourcePoint" />
            <mxPoint x="440" y="560" as="targetPoint" />
          </mxGeometry>
        </mxCell>
        <mxCell id="dbAEbBNosN-S3VM0Tga8-21" value="" style="endArrow=classic;html=1;rounded=0;exitX=1;exitY=0.5;exitDx=0;exitDy=0;entryX=0;entryY=0.5;entryDx=0;entryDy=0;" edge="1" parent="1" source="dbAEbBNosN-S3VM0Tga8-45" target="dbAEbBNosN-S3VM0Tga8-18">
          <mxGeometry width="50" height="50" relative="1" as="geometry">
            <mxPoint x="509" y="625" as="sourcePoint" />
            <mxPoint x="440" y="560" as="targetPoint" />
          </mxGeometry>
        </mxCell>
        <mxCell id="dbAEbBNosN-S3VM0Tga8-22" value="" style="endArrow=classic;html=1;rounded=0;exitX=0.5;exitY=1;exitDx=0;exitDy=0;entryX=0.5;entryY=0;entryDx=0;entryDy=0;" edge="1" parent="1" source="dbAEbBNosN-S3VM0Tga8-53" target="dbAEbBNosN-S3VM0Tga8-56">
          <mxGeometry width="50" height="50" relative="1" as="geometry">
            <mxPoint x="319" y="625" as="sourcePoint" />
            <mxPoint x="250" y="721.02" as="targetPoint" />
          </mxGeometry>
        </mxCell>
        <mxCell id="dbAEbBNosN-S3VM0Tga8-23" value="" style="endArrow=classic;html=1;rounded=0;exitX=0.392;exitY=1.033;exitDx=0;exitDy=0;exitPerimeter=0;entryX=0.642;entryY=0.017;entryDx=0;entryDy=0;entryPerimeter=0;" edge="1" parent="1" source="dbAEbBNosN-S3VM0Tga8-41" target="dbAEbBNosN-S3VM0Tga8-44">
          <mxGeometry width="50" height="50" relative="1" as="geometry">
            <mxPoint x="330" y="400" as="sourcePoint" />
            <mxPoint x="350" y="320" as="targetPoint" />
            <Array as="points" />
          </mxGeometry>
        </mxCell>
        <mxCell id="dbAEbBNosN-S3VM0Tga8-25" value="нет" style="text;html=1;align=center;verticalAlign=middle;resizable=0;points=[];autosize=1;strokeColor=none;fillColor=none;" vertex="1" parent="1">
          <mxGeometry x="444" y="410" width="40" height="30" as="geometry" />
        </mxCell>
        <mxCell id="dbAEbBNosN-S3VM0Tga8-27" value="" style="endArrow=classic;html=1;rounded=0;exitX=0.5;exitY=1;exitDx=0;exitDy=0;entryX=0.815;entryY=0.08;entryDx=0;entryDy=0;entryPerimeter=0;" edge="1" parent="1" source="dbAEbBNosN-S3VM0Tga8-18" target="dbAEbBNosN-S3VM0Tga8-7">
          <mxGeometry width="50" height="50" relative="1" as="geometry">
            <mxPoint x="390" y="510" as="sourcePoint" />
            <mxPoint x="440" y="460" as="targetPoint" />
          </mxGeometry>
        </mxCell>
        <mxCell id="dbAEbBNosN-S3VM0Tga8-28" value="" style="endArrow=classic;html=1;rounded=0;exitX=0.5;exitY=1;exitDx=0;exitDy=0;entryX=0.5;entryY=0;entryDx=0;entryDy=0;" edge="1" parent="1" source="dbAEbBNosN-S3VM0Tga8-44" target="dbAEbBNosN-S3VM0Tga8-45">
          <mxGeometry width="50" height="50" relative="1" as="geometry">
            <mxPoint x="434" y="495" as="sourcePoint" />
            <mxPoint x="414" y="585" as="targetPoint" />
          </mxGeometry>
        </mxCell>
        <mxCell id="dbAEbBNosN-S3VM0Tga8-30" value="есть ячейка с координатами&lt;br&gt;в таблице?" style="rhombus;whiteSpace=wrap;html=1;" vertex="1" parent="1">
          <mxGeometry x="110" y="200" width="224" height="80" as="geometry" />
        </mxCell>
        <mxCell id="dbAEbBNosN-S3VM0Tga8-32" value="" style="endArrow=classic;html=1;rounded=0;exitX=0.5;exitY=1;exitDx=0;exitDy=0;entryX=0.25;entryY=0;entryDx=0;entryDy=0;" edge="1" parent="1" source="dbAEbBNosN-S3VM0Tga8-30" target="dbAEbBNosN-S3VM0Tga8-44">
          <mxGeometry width="50" height="50" relative="1" as="geometry">
            <mxPoint x="390" y="510" as="sourcePoint" />
            <mxPoint x="330" y="320" as="targetPoint" />
            <Array as="points" />
          </mxGeometry>
        </mxCell>
        <mxCell id="dbAEbBNosN-S3VM0Tga8-33" value="да" style="text;html=1;align=center;verticalAlign=middle;resizable=0;points=[];autosize=1;strokeColor=none;fillColor=none;" vertex="1" parent="1">
          <mxGeometry x="190" y="290" width="40" height="30" as="geometry" />
        </mxCell>
        <mxCell id="dbAEbBNosN-S3VM0Tga8-35" value="" style="endArrow=classic;html=1;rounded=0;exitX=1;exitY=0.5;exitDx=0;exitDy=0;" edge="1" parent="1" source="dbAEbBNosN-S3VM0Tga8-30">
          <mxGeometry width="50" height="50" relative="1" as="geometry">
            <mxPoint x="390" y="610" as="sourcePoint" />
            <mxPoint x="400" y="240" as="targetPoint" />
          </mxGeometry>
        </mxCell>
        <mxCell id="dbAEbBNosN-S3VM0Tga8-36" value="нет" style="text;html=1;align=center;verticalAlign=middle;resizable=0;points=[];autosize=1;strokeColor=none;fillColor=none;" vertex="1" parent="1">
          <mxGeometry x="350" y="250" width="40" height="30" as="geometry" />
        </mxCell>
        <mxCell id="dbAEbBNosN-S3VM0Tga8-41" value="создать пустую ячейку в таблице" style="rounded=0;whiteSpace=wrap;html=1;" vertex="1" parent="1">
          <mxGeometry x="402" y="205" width="120" height="60" as="geometry" />
        </mxCell>
        <mxCell id="dbAEbBNosN-S3VM0Tga8-44" value="создать временный Impl" style="rounded=0;whiteSpace=wrap;html=1;" vertex="1" parent="1">
          <mxGeometry x="282" y="320" width="120" height="60" as="geometry" />
        </mxCell>
        <mxCell id="dbAEbBNosN-S3VM0Tga8-45" value="Удалось создать в Impl&lt;br&gt;дочерний объект из текст?" style="rhombus;whiteSpace=wrap;html=1;" vertex="1" parent="1">
          <mxGeometry x="230" y="400" width="224" height="80" as="geometry" />
        </mxCell>
        <mxCell id="dbAEbBNosN-S3VM0Tga8-46" value="Подстановка создаст цикл?" style="rhombus;whiteSpace=wrap;html=1;" vertex="1" parent="1">
          <mxGeometry x="230" y="490" width="224" height="80" as="geometry" />
        </mxCell>
        <mxCell id="dbAEbBNosN-S3VM0Tga8-47" value="выброс исключения" style="rounded=0;whiteSpace=wrap;html=1;" vertex="1" parent="1">
          <mxGeometry x="480" y="500" width="120" height="60" as="geometry" />
        </mxCell>
        <mxCell id="dbAEbBNosN-S3VM0Tga8-48" value="" style="endArrow=classic;html=1;rounded=0;exitX=0.5;exitY=1;exitDx=0;exitDy=0;" edge="1" parent="1" source="dbAEbBNosN-S3VM0Tga8-45" target="dbAEbBNosN-S3VM0Tga8-46">
          <mxGeometry width="50" height="50" relative="1" as="geometry">
            <mxPoint x="390" y="640" as="sourcePoint" />
            <mxPoint x="440" y="590" as="targetPoint" />
          </mxGeometry>
        </mxCell>
        <mxCell id="dbAEbBNosN-S3VM0Tga8-49" value="" style="endArrow=classic;html=1;rounded=0;exitX=1;exitY=0.5;exitDx=0;exitDy=0;entryX=0;entryY=0.5;entryDx=0;entryDy=0;" edge="1" parent="1" source="dbAEbBNosN-S3VM0Tga8-46" target="dbAEbBNosN-S3VM0Tga8-47">
          <mxGeometry width="50" height="50" relative="1" as="geometry">
            <mxPoint x="390" y="640" as="sourcePoint" />
            <mxPoint x="440" y="590" as="targetPoint" />
          </mxGeometry>
        </mxCell>
        <mxCell id="dbAEbBNosN-S3VM0Tga8-50" value="да" style="text;html=1;align=center;verticalAlign=middle;resizable=0;points=[];autosize=1;strokeColor=none;fillColor=none;" vertex="1" parent="1">
          <mxGeometry x="440" y="505" width="40" height="30" as="geometry" />
        </mxCell>
        <mxCell id="dbAEbBNosN-S3VM0Tga8-51" value="" style="endArrow=classic;html=1;rounded=0;exitX=0.5;exitY=1;exitDx=0;exitDy=0;entryX=0.676;entryY=0;entryDx=0;entryDy=0;entryPerimeter=0;" edge="1" parent="1" source="dbAEbBNosN-S3VM0Tga8-47" target="dbAEbBNosN-S3VM0Tga8-7">
          <mxGeometry width="50" height="50" relative="1" as="geometry">
            <mxPoint x="390" y="640" as="sourcePoint" />
            <mxPoint x="440" y="590" as="targetPoint" />
          </mxGeometry>
        </mxCell>
        <mxCell id="dbAEbBNosN-S3VM0Tga8-52" value="да" style="text;html=1;align=center;verticalAlign=middle;resizable=0;points=[];autosize=1;strokeColor=none;fillColor=none;" vertex="1" parent="1">
          <mxGeometry x="270" y="465" width="40" height="30" as="geometry" />
        </mxCell>
        <mxCell id="dbAEbBNosN-S3VM0Tga8-53" value="Присвоить ячейке в таблице Impl" style="rounded=0;whiteSpace=wrap;html=1;" vertex="1" parent="1">
          <mxGeometry x="279" y="584.5" width="120" height="60" as="geometry" />
        </mxCell>
        <mxCell id="dbAEbBNosN-S3VM0Tga8-54" value="" style="endArrow=classic;html=1;rounded=0;exitX=0.5;exitY=1;exitDx=0;exitDy=0;" edge="1" parent="1" source="dbAEbBNosN-S3VM0Tga8-46" target="dbAEbBNosN-S3VM0Tga8-53">
          <mxGeometry width="50" height="50" relative="1" as="geometry">
            <mxPoint x="390" y="630" as="sourcePoint" />
            <mxPoint x="440" y="580" as="targetPoint" />
          </mxGeometry>
        </mxCell>
        <mxCell id="dbAEbBNosN-S3VM0Tga8-55" value="нет" style="text;html=1;align=center;verticalAlign=middle;resizable=0;points=[];autosize=1;strokeColor=none;fillColor=none;" vertex="1" parent="1">
          <mxGeometry x="350" y="555" width="40" height="30" as="geometry" />
        </mxCell>
        <mxCell id="dbAEbBNosN-S3VM0Tga8-56" value="Обновить сет &quot;влияющие ячейки&quot;" style="rounded=0;whiteSpace=wrap;html=1;" vertex="1" parent="1">
          <mxGeometry x="282" y="670" width="120" height="60" as="geometry" />
        </mxCell>
        <mxCell id="dbAEbBNosN-S3VM0Tga8-57" value="Инвалидация кэша" style="rounded=0;whiteSpace=wrap;html=1;" vertex="1" parent="1">
          <mxGeometry x="282" y="750" width="120" height="60" as="geometry" />
        </mxCell>
        <mxCell id="dbAEbBNosN-S3VM0Tga8-59" value="" style="endArrow=classic;html=1;rounded=0;exitX=0.5;exitY=1;exitDx=0;exitDy=0;entryX=0.335;entryY=0.04;entryDx=0;entryDy=0;entryPerimeter=0;" edge="1" parent="1" source="dbAEbBNosN-S3VM0Tga8-57" target="dbAEbBNosN-S3VM0Tga8-7">
          <mxGeometry width="50" height="50" relative="1" as="geometry">
            <mxPoint x="390" y="640" as="sourcePoint" />
            <mxPoint x="440" y="590" as="targetPoint" />
          </mxGeometry>
        </mxCell>
      </root>
    </mxGraphModel>
  </diagram>
</mxfile>
